<?xml version="1.0" encoding="utf-8"?>
<svg width="582" height="582" viewBox="0 0 582 582" xmlns="http://www.w3.org/2000/svg">
  <path d="M443.565 221.25c25.649 0 49.835 6.304 71.164 17.381-11.646-59.878-32.858-109.56-45.38-130.307-19.896-32.962-92.945-54.633-116.696-30.882-23.752 23.752-91.158 21.383-91.158 21.383s-67.406 2.375-91.157-21.377c-23.752-23.752-96.8-2.081-116.696 30.881-19.89 32.958-61.763 138.968-52.259 242.893 9.504 103.924 58.201 70.668 97.987 38.005 39.786-32.662 52.858-61.169 162.125-61.169 12.748 0 24.137.403 34.456 1.138 19.945-62.529 78.563-107.946 147.614-107.946z"/>
  <path d="M518.688 262.145c-21.548-14.229-47.362-22.534-75.123-22.534-59.603 0-110.252 38.201-128.887 91.439a136.245 136.245 0 0 0-7.662 45.11c0 75.417 61.133 136.55 136.549 136.55 75.417 0 136.55-61.139 136.55-136.55 0-47.656-24.425-89.584-61.427-114.015zm10.521 135.478a6.117 6.117 0 0 1-6.12 6.12h-45.826a6.122 6.122 0 0 0-6.12 6.12v45.82a6.122 6.122 0 0 1-6.12 6.12h-42.926a6.122 6.122 0 0 1-6.12-6.12v-45.826a6.122 6.122 0 0 0-6.12-6.12h-45.82a6.118 6.118 0 0 1-6.12-6.12v-42.919a6.118 6.118 0 0 1 6.12-6.12h45.827a6.122 6.122 0 0 0 6.119-6.12v-45.827a6.122 6.122 0 0 1 6.12-6.119h42.926a6.121 6.121 0 0 1 6.12 6.119v45.827a6.123 6.123 0 0 0 6.12 6.12H523.089a6.117 6.117 0 0 1 6.12 6.12v42.925z"/>
</svg>