<svg xmlns="http://www.w3.org/2000/svg" width="512" height="512" viewBox="0 0 512 512"><path d="M510.295 329.981l-34.318-145.846c-9.243-39.288-45.458-79.686-100.608-79.686H136.631c-40.36 0-87.978 26.002-100.608 79.686L1.704 329.981c-9.316 39.588 20.732 77.569 61.455 77.569 17.306 0 33.583-9.218 42.476-24.051l26.438-44.056c4.519-7.536 12.786-12.217 21.575-12.217h204.7c8.79 0 17.057 4.682 21.579 12.223l26.431 44.045c8.898 14.839 25.175 24.057 42.5 24.057 40.663-.001 70.762-37.943 61.437-77.57zM191.74 230.836h-17.132v17.132c0 8.283-6.715 14.998-14.998 14.998s-14.998-6.715-14.998-14.998v-17.132H127.48c-8.283 0-14.998-6.715-14.998-14.998s6.715-14.998 14.998-14.998h17.132v-17.132c0-8.283 6.715-14.998 14.998-14.998s14.998 6.715 14.998 14.998v17.132h17.132c8.283 0 14.998 6.715 14.998 14.998s-6.715 14.998-14.998 14.998zm128.519 0c-8.278 0-14.998-6.719-14.998-14.998s6.721-14.998 14.998-14.998c8.278 0 14.998 6.719 14.998 14.998s-6.72 14.998-14.998 14.998zm32.13 32.13c-8.278 0-14.998-6.719-14.998-14.998s6.721-14.998 14.998-14.998 14.998 6.719 14.998 14.998-6.72 14.998-14.998 14.998zm0-64.26c-8.278 0-14.998-6.719-14.998-14.998s6.721-14.998 14.998-14.998 14.998 6.719 14.998 14.998-6.72 14.998-14.998 14.998zm32.13 32.13c-8.278 0-14.998-6.719-14.998-14.998s6.721-14.998 14.998-14.998c8.278 0 14.998 6.719 14.998 14.998s-6.72 14.998-14.998 14.998z" fill-rule="evenodd" clip-rule="evenodd"/></svg>