<svg width="128" height="128" viewBox="0 0 128 128" xmlns="http://www.w3.org/2000/svg"><g data-name="Layer 2"><path d="M75.303 127.626h19.59c18.021 0 32.63-14.609 32.63-32.63v-62c.011-18.029-14.601-32.65-32.63-32.65h-19.69a.83.83 0 0 0-.83.83v125.52c0 .514.416.93.93.93zm24.25-70.14c9.907 0 16.099 10.725 11.146 19.305-4.954 8.58-17.338 8.58-22.292 0a12.868 12.868 0 0 1-1.724-6.445c.006-7.104 5.766-12.86 12.87-12.86zm-79.49-18.96c0 9.238 10 15.011 18 10.392 8-4.618 8-16.166 0-20.784a11.993 11.993 0 0 0-6-1.608c-6.627 0-12 5.373-12 12zM60.753.346h-27.87C14.856.346.243 14.959.243 32.986v62c0 18.025 14.615 32.636 32.64 32.63h27.87a.93.93 0 0 0 .93-.93V1.276a.93.93 0 0 0-.93-.93zm-9.38 117h-18.49c-12.348 0-22.363-10.002-22.38-22.35v-62c.006-12.359 10.021-22.379 22.38-22.39h18.49v106.74z" data-name="NINTENDO SWITCH LOGO" fill="#c9c9c9"/></g></svg>