<?xml version="1.0" encoding="utf-8"?>
<svg width="13px" height="13px" viewBox="0 0 13 13" version="1.1" xmlns="http://www.w3.org/2000/svg">
  <g id="Page-1" stroke="none" stroke-width="1" fill="none" fill-rule="evenodd">
    <path d="M 8.274000000000001 1 L 10.712 1 L 12 2.559 L 12 5.271 L 9.77 5.271 L 9.77 3.169 L 9.327 3.169 L 9.327 9.814 L 9.77 9.814 L 9.77 7.305 L 12 7.305 L 12 10.492 L 10.600999999999999 12 L 8.496 12 L 7 10.492 L 7 2.559 Z M 1 1 L 4.523 1 L 6 2.559 L 6 6.763 L 4.523 8.254 L 3.273 8.254 L 3.273 12 L 1 12 L 1 1 Z M 3.273 3.102 L 3.727 3.102 L 3.727 6.1530000000000005 L 3.273 6.1530000000000005 L 3.273 3.102 Z M 0 0 L 13 0 L 13 13 L 0 13 L 0 0 Z" id="C" fill="#FFFFFF" style=""/>
  </g>
</svg>