<?xml version="1.0" encoding="UTF-8"?><!DOCTYPE svg PUBLIC "-//W3C//DTD SVG 1.1//EN" "http://www.w3.org/Graphics/SVG/1.1/DTD/svg11.dtd"><svg xmlns="http://www.w3.org/2000/svg"><symbol id="icon-add-game" viewBox="0 0 582 582"><path d="M443.565 221.25c25.649 0 49.835 6.304 71.164 17.381-11.646-59.878-32.858-109.56-45.38-130.307-19.896-32.962-92.945-54.633-116.696-30.882-23.752 23.752-91.158 21.383-91.158 21.383s-67.406 2.375-91.157-21.377c-23.752-23.752-96.8-2.081-116.696 30.881-19.89 32.958-61.763 138.968-52.259 242.893 9.504 103.924 58.201 70.668 97.987 38.005 39.786-32.662 52.858-61.169 162.125-61.169 12.748 0 24.137.403 34.456 1.138 19.945-62.529 78.563-107.946 147.614-107.946z"/><path d="M518.688 262.145c-21.548-14.229-47.362-22.534-75.123-22.534-59.603 0-110.252 38.201-128.887 91.439a136.245 136.245 0 0 0-7.662 45.11c0 75.417 61.133 136.55 136.549 136.55 75.417 0 136.55-61.139 136.55-136.55 0-47.656-24.425-89.584-61.427-114.015zm10.521 135.478a6.117 6.117 0 0 1-6.12 6.12h-45.826a6.122 6.122 0 0 0-6.12 6.12v45.82a6.122 6.122 0 0 1-6.12 6.12h-42.926a6.122 6.122 0 0 1-6.12-6.12v-45.826a6.122 6.122 0 0 0-6.12-6.12h-45.82a6.118 6.118 0 0 1-6.12-6.12v-42.919a6.118 6.118 0 0 1 6.12-6.12h45.827a6.122 6.122 0 0 0 6.119-6.12v-45.827a6.122 6.122 0 0 1 6.12-6.119h42.926a6.121 6.121 0 0 1 6.12 6.119v45.827a6.123 6.123 0 0 0 6.12 6.12h45.82a6.117 6.117 0 0 1 6.12 6.12v42.925z"/></symbol><symbol id="icon-add" viewBox="0 0 448 448"><path d="M408 184H272a8 8 0 0 1-8-8V40c0-22.09-17.91-40-40-40s-40 17.91-40 40v136a8 8 0 0 1-8 8H40c-22.09 0-40 17.91-40 40s17.91 40 40 40h136a8 8 0 0 1 8 8v136c0 22.09 17.91 40 40 40s40-17.91 40-40V272a8 8 0 0 1 8-8h136c22.09 0 40-17.91 40-40s-17.91-40-40-40zm0 0"/></symbol><symbol id="icon-facebook" viewBox="0 0 10 19"><path d="M9.766.157v2.946H8.014c-.64 0-1.071.134-1.295.402-.223.268-.335.67-.335 1.205v2.11h3.27l-.435 3.303H6.384v8.471H2.97v-8.47H.123V6.82H2.97V4.387c0-1.384.387-2.457 1.161-3.22C4.904.404 5.934.023 7.222.023c1.093 0 1.941.045 2.544.134z" fill-rule="evenodd"/></symbol><symbol id="icon-favorite" viewBox="0 0 493 493"><path d="M492.719 166.008c0-73.486-59.573-133.056-133.059-133.056-47.985 0-89.891 25.484-113.302 63.569-23.408-38.085-65.332-63.569-113.316-63.569C59.556 32.952 0 92.522 0 166.008c0 40.009 17.729 75.803 45.671 100.178l188.545 188.553a17.17 17.17 0 0 0 24.284 0l188.545-188.553c27.943-24.375 45.674-60.169 45.674-100.178z"/></symbol><symbol id="icon-gamepad" viewBox="0 0 512 512"><path d="M510.295 329.981l-34.318-145.846c-9.243-39.288-45.458-79.686-100.608-79.686H136.631c-40.36 0-87.978 26.002-100.608 79.686L1.704 329.981c-9.316 39.588 20.732 77.569 61.455 77.569 17.306 0 33.583-9.218 42.476-24.051l26.438-44.056c4.519-7.536 12.786-12.217 21.575-12.217h204.7c8.79 0 17.057 4.682 21.579 12.223l26.431 44.045c8.898 14.839 25.175 24.057 42.5 24.057 40.663-.001 70.762-37.943 61.437-77.57zM191.74 230.836h-17.132v17.132c0 8.283-6.715 14.998-14.998 14.998s-14.998-6.715-14.998-14.998v-17.132H127.48c-8.283 0-14.998-6.715-14.998-14.998s6.715-14.998 14.998-14.998h17.132v-17.132c0-8.283 6.715-14.998 14.998-14.998s14.998 6.715 14.998 14.998v17.132h17.132c8.283 0 14.998 6.715 14.998 14.998s-6.715 14.998-14.998 14.998zm128.519 0c-8.278 0-14.998-6.719-14.998-14.998s6.721-14.998 14.998-14.998c8.278 0 14.998 6.719 14.998 14.998s-6.72 14.998-14.998 14.998zm32.13 32.13c-8.278 0-14.998-6.719-14.998-14.998s6.721-14.998 14.998-14.998 14.998 6.719 14.998 14.998-6.72 14.998-14.998 14.998zm0-64.26c-8.278 0-14.998-6.719-14.998-14.998s6.721-14.998 14.998-14.998 14.998 6.719 14.998 14.998-6.72 14.998-14.998 14.998zm32.13 32.13c-8.278 0-14.998-6.719-14.998-14.998s6.721-14.998 14.998-14.998c8.278 0 14.998 6.719 14.998 14.998s-6.72 14.998-14.998 14.998z" fill-rule="evenodd" clip-rule="evenodd"/></symbol><symbol id="icon-nintendo" viewBox="0 0 128 128"><g data-name="Layer 2"><path d="M75.303 127.626h19.59c18.021 0 32.63-14.609 32.63-32.63v-62c.011-18.029-14.601-32.65-32.63-32.65h-19.69a.83.83 0 0 0-.83.83v125.52c0 .514.416.93.93.93zm24.25-70.14c9.907 0 16.099 10.725 11.146 19.305-4.954 8.58-17.338 8.58-22.292 0a12.868 12.868 0 0 1-1.724-6.445c.006-7.104 5.766-12.86 12.87-12.86zm-79.49-18.96c0 9.238 10 15.011 18 10.392 8-4.618 8-16.166 0-20.784a11.993 11.993 0 0 0-6-1.608c-6.627 0-12 5.373-12 12zM60.753.346h-27.87C14.856.346.243 14.959.243 32.986v62c0 18.025 14.615 32.636 32.64 32.63h27.87a.93.93 0 0 0 .93-.93V1.276a.93.93 0 0 0-.93-.93zm-9.38 117h-18.49c-12.348 0-22.363-10.002-22.38-22.35v-62c.006-12.359 10.021-22.379 22.38-22.39h18.49v106.74z" data-name="NINTENDO SWITCH LOGO"/></g></symbol><symbol id="icon-pc" viewBox="0 0 13 13">
  <g id="Page-1" stroke-width="1" fill-rule="evenodd">
    <path d="M 8.274000000000001 1 L 10.712 1 L 12 2.559 L 12 5.271 L 9.77 5.271 L 9.77 3.169 L 9.327 3.169 L 9.327 9.814 L 9.77 9.814 L 9.77 7.305 L 12 7.305 L 12 10.492 L 10.600999999999999 12 L 8.496 12 L 7 10.492 L 7 2.559 Z M 1 1 L 4.523 1 L 6 2.559 L 6 6.763 L 4.523 8.254 L 3.273 8.254 L 3.273 12 L 1 12 L 1 1 Z M 3.273 3.102 L 3.727 3.102 L 3.727 6.1530000000000005 L 3.273 6.1530000000000005 L 3.273 3.102 Z M 0 0 L 13 0 L 13 13 L 0 13 L 0 0 Z" id="C" style=""/>
  </g>
</symbol><symbol id="icon-ps4" viewBox="0 0 107 107"><g><path d="M11.703 67.563l-3.6 1.4c-5.4 2.3-8.2 4.7-8.1 6.8.3 3.1 3.8 5.4 10.2 7.1 8.3 2.2 16.7 2.7 25.4 1.4v-8.7l-6.9 2.6c-7.2 2.5-10.9.4-10.9.4-1.1-.7-1.6-2.4 1.4-3.5l3.8-1.4 12.6-4.5v-10.1l-3.2 1.1-20.7 7.4zM64.303 32.463v25.9c5.4 2.6 10.2 2.8 13.8.1 3.7-2.6 5.7-7.1 5.7-13.9 0-7.1-1.4-12.5-4.5-16.1-2.8-3.8-7.8-7-15.2-9.5-9.2-3-17-5.6-23.2-6.9v77.5l16.7 5.1v-64.4c-.1-3.9 6.7-3.6 6.7 2.2z"/><path d="M106.703 72.463c-.1-2.7-3.3-4.8-9-6.7-6.4-2.1-11.9-3.1-17.9-2.9-5.5.1-12.1 1.9-18 3.8v9.9l16.2-5.7s4.9-1.8 9.1-.7c3.2.8 3 2.6-.2 3.7l-3.7 1.5-21.4 7.7v10.1l10-3.6 24-8.5 2.8-1.3c5.8-2.1 8.4-4.4 8.1-7.3z"/></g></symbol><symbol id="icon-star" viewBox="0 0 50 50">
  <path d="M48.856 22.73a3.56 3.56 0 0 0 .906-3.671 3.56 3.56 0 0 0-2.892-2.438l-12.092-1.757a1.58 1.58 0 0 1-1.19-.865L28.182 3.043a3.56 3.56 0 0 0-3.212-1.996 3.56 3.56 0 0 0-3.211 1.996L16.352 14c-.23.467-.676.79-1.191.865L3.069 16.622A3.56 3.56 0 0 0 .177 19.06a3.56 3.56 0 0 0 .906 3.671l8.749 8.528c.373.364.544.888.456 1.4L8.224 44.701a3.506 3.506 0 0 0 .781 2.904c1.066 1.267 2.927 1.653 4.415.871l10.814-5.686a1.619 1.619 0 0 1 1.472 0l10.815 5.686a3.544 3.544 0 0 0 1.666.417c1.057 0 2.059-.47 2.748-1.288a3.505 3.505 0 0 0 .781-2.904l-2.065-12.042a1.582 1.582 0 0 1 .456-1.4l8.749-8.529z"/>
</symbol><symbol id="icon-xbox" viewBox="0 0 26 26"><path d="M5.733 2.183c-.013.01-.023.021-.035.031.073-.077.178-.16.247-.205C7.959.7 10.286 0 12.868 0c2.415 0 4.677.667 6.608 1.827.14.083.522.345.719.583v.001c-1.863-2.054-7.339 2.353-7.339 2.353-1.894-1.46-3.636-2.455-4.933-2.809-1.084-.297-1.834-.049-2.19.228zm16.572 1.942c-.057-.063-.119-.122-.176-.187-.471-.517-1.05-.642-1.572-.608-.475.149-2.67.94-5.375 3.494 0 0 3.045 2.961 4.91 5.988 1.863 3.027 2.977 5.406 2.292 8.708a12.817 12.817 0 0 0 3.347-8.655c0-3.374-1.299-6.445-3.426-8.74zm-4.648 9.98a89.118 89.118 0 0 0-3.678-3.869c-.355-.353-.73-.721-1.124-1.102 0 0-.593.593-1.365 1.373v-.001c-.988.998-2.269 2.3-2.98 3.06-1.266 1.351-4.893 5.594-5.097 7.973 0 0-.807-1.887.964-6.239 1.157-2.845 4.653-7.117 6.113-8.509 0 0-1.334-1.468-3.008-2.482l-.01-.003s-.019-.015-.049-.034c-.805-.48-1.684-.85-2.53-.899-.864.061-1.411.693-1.411.693a12.82 12.82 0 0 0-3.48 8.8c0 7.105 5.76 12.866 12.866 12.866a12.84 12.84 0 0 0 9.518-4.211c-.001-.004-.271-1.7-2.002-4.133-.407-.57-1.894-2.349-2.727-3.283z"/></symbol></svg>