<?xml version="1.0" encoding="UTF-8"?><!DOCTYPE svg PUBLIC "-//W3C//DTD SVG 1.1//EN" "http://www.w3.org/Graphics/SVG/1.1/DTD/svg11.dtd"><svg xmlns="http://www.w3.org/2000/svg" xmlns:xlink="http://www.w3.org/1999/xlink" xmlns:sketch="http://www.bohemiancoding.com/sketch/ns"><symbol id="icon-add-game" viewBox="0 0 582 582">
  <path d="M443.565 221.25c25.649 0 49.835 6.304 71.164 17.381-11.646-59.878-32.858-109.56-45.38-130.307-19.896-32.962-92.945-54.633-116.696-30.882-23.752 23.752-91.158 21.383-91.158 21.383s-67.406 2.375-91.157-21.377c-23.752-23.752-96.8-2.081-116.696 30.881-19.89 32.958-61.763 138.968-52.259 242.893 9.504 103.924 58.201 70.668 97.987 38.005 39.786-32.662 52.858-61.169 162.125-61.169 12.748 0 24.137.403 34.456 1.138 19.945-62.529 78.563-107.946 147.614-107.946z"/>
  <path d="M518.688 262.145c-21.548-14.229-47.362-22.534-75.123-22.534-59.603 0-110.252 38.201-128.887 91.439a136.245 136.245 0 0 0-7.662 45.11c0 75.417 61.133 136.55 136.549 136.55 75.417 0 136.55-61.139 136.55-136.55 0-47.656-24.425-89.584-61.427-114.015zm10.521 135.478a6.117 6.117 0 0 1-6.12 6.12h-45.826a6.122 6.122 0 0 0-6.12 6.12v45.82a6.122 6.122 0 0 1-6.12 6.12h-42.926a6.122 6.122 0 0 1-6.12-6.12v-45.826a6.122 6.122 0 0 0-6.12-6.12h-45.82a6.118 6.118 0 0 1-6.12-6.12v-42.919a6.118 6.118 0 0 1 6.12-6.12h45.827a6.122 6.122 0 0 0 6.119-6.12v-45.827a6.122 6.122 0 0 1 6.12-6.119h42.926a6.121 6.121 0 0 1 6.12 6.119v45.827a6.123 6.123 0 0 0 6.12 6.12H523.089a6.117 6.117 0 0 1 6.12 6.12v42.925z"/>
</symbol><symbol id="icon-add" viewBox="0 0 448 448"><path d="m408 184h-136c-4.417969 0-8-3.582031-8-8v-136c0-22.089844-17.910156-40-40-40s-40 17.910156-40 40v136c0 4.417969-3.582031 8-8 8h-136c-22.089844 0-40 17.910156-40 40s17.910156 40 40 40h136c4.417969 0 8 3.582031 8 8v136c0 22.089844 17.910156 40 40 40s40-17.910156 40-40v-136c0-4.417969 3.582031-8 8-8h136c22.089844 0 40-17.910156 40-40s-17.910156-40-40-40zm0 0"/></symbol><symbol id="icon-facebook" viewBox="0 0 10 19">
    <!-- Generator: Sketch 3.3.3 (12072) - http://www.bohemiancoding.com/sketch -->
    <title>facebook</title>
    <desc>Created with Sketch.</desc>
    
    <g id="Page-1" stroke-width="1" fill-rule="evenodd" sketch:type="MSPage">
        <path d="M9.76616526,0.156928571 L9.76616526,3.10335714 L8.01393311,3.10335714 C7.37405216,3.10335714 6.94250454,3.23728571 6.71929026,3.50514286 C6.49607597,3.773 6.38446883,4.17478571 6.38446883,4.7105 L6.38446883,6.819875 L9.65455811,6.819875 L9.21929026,10.1234464 L6.38446883,10.1234464 L6.38446883,18.5944286 L2.96929026,18.5944286 L2.96929026,10.1234464 L0.123308113,10.1234464 L0.123308113,6.819875 L2.96929026,6.819875 L2.96929026,4.38683929 C2.96929026,3.00291071 3.35619502,1.92962202 4.13000454,1.16697321 C4.90381407,0.404324405 5.93432002,0.023 7.2215224,0.023 C8.3152724,0.023 9.16348668,0.0676428571 9.76616526,0.156928571 L9.76616526,0.156928571 Z" id="facebook" sketch:type="MSShapeGroup"/>
    </g>
</symbol><symbol id="icon-favorite" viewBox="0 0 493 493"><path d="M492.719 166.008c0-73.486-59.573-133.056-133.059-133.056-47.985 0-89.891 25.484-113.302 63.569-23.408-38.085-65.332-63.569-113.316-63.569C59.556 32.952 0 92.522 0 166.008c0 40.009 17.729 75.803 45.671 100.178l188.545 188.553a17.17 17.17 0 0 0 24.284 0l188.545-188.553c27.943-24.375 45.674-60.169 45.674-100.178z"/></symbol><symbol id="icon-gamepad" viewBox="0 0 512 512"><path d="M510.295 329.981l-34.318-145.846c-9.243-39.288-45.458-79.686-100.608-79.686H136.631c-40.36 0-87.978 26.002-100.608 79.686L1.704 329.981c-9.316 39.588 20.732 77.569 61.455 77.569 17.306 0 33.583-9.218 42.476-24.051l26.438-44.056c4.519-7.536 12.786-12.217 21.575-12.217h204.7c8.79 0 17.057 4.682 21.579 12.223l26.431 44.045c8.898 14.839 25.175 24.057 42.5 24.057 40.663-.001 70.762-37.943 61.437-77.57zM191.74 230.836h-17.132v17.132c0 8.283-6.715 14.998-14.998 14.998s-14.998-6.715-14.998-14.998v-17.132H127.48c-8.283 0-14.998-6.715-14.998-14.998s6.715-14.998 14.998-14.998h17.132v-17.132c0-8.283 6.715-14.998 14.998-14.998s14.998 6.715 14.998 14.998v17.132h17.132c8.283 0 14.998 6.715 14.998 14.998s-6.715 14.998-14.998 14.998zm128.519 0c-8.278 0-14.998-6.719-14.998-14.998s6.721-14.998 14.998-14.998c8.278 0 14.998 6.719 14.998 14.998s-6.72 14.998-14.998 14.998zm32.13 32.13c-8.278 0-14.998-6.719-14.998-14.998s6.721-14.998 14.998-14.998 14.998 6.719 14.998 14.998-6.72 14.998-14.998 14.998zm0-64.26c-8.278 0-14.998-6.719-14.998-14.998s6.721-14.998 14.998-14.998 14.998 6.719 14.998 14.998-6.72 14.998-14.998 14.998zm32.13 32.13c-8.278 0-14.998-6.719-14.998-14.998s6.721-14.998 14.998-14.998c8.278 0 14.998 6.719 14.998 14.998s-6.72 14.998-14.998 14.998z" fill-rule="evenodd" clip-rule="evenodd"/></symbol></svg>