<?xml version="1.0" encoding="UTF-8"?><!DOCTYPE svg PUBLIC "-//W3C//DTD SVG 1.1//EN" "http://www.w3.org/Graphics/SVG/1.1/DTD/svg11.dtd"><svg xmlns="http://www.w3.org/2000/svg" xmlns:xlink="http://www.w3.org/1999/xlink" xmlns:sketch="http://www.bohemiancoding.com/sketch/ns"><symbol id="icon-facebook" viewBox="0 0 10 19">
    <!-- Generator: Sketch 3.3.3 (12072) - http://www.bohemiancoding.com/sketch -->
    <title>facebook</title>
    <desc>Created with Sketch.</desc>
    
    <g id="Page-1" stroke-width="1" fill-rule="evenodd" sketch:type="MSPage">
        <path d="M9.76616526,0.156928571 L9.76616526,3.10335714 L8.01393311,3.10335714 C7.37405216,3.10335714 6.94250454,3.23728571 6.71929026,3.50514286 C6.49607597,3.773 6.38446883,4.17478571 6.38446883,4.7105 L6.38446883,6.819875 L9.65455811,6.819875 L9.21929026,10.1234464 L6.38446883,10.1234464 L6.38446883,18.5944286 L2.96929026,18.5944286 L2.96929026,10.1234464 L0.123308113,10.1234464 L0.123308113,6.819875 L2.96929026,6.819875 L2.96929026,4.38683929 C2.96929026,3.00291071 3.35619502,1.92962202 4.13000454,1.16697321 C4.90381407,0.404324405 5.93432002,0.023 7.2215224,0.023 C8.3152724,0.023 9.16348668,0.0676428571 9.76616526,0.156928571 L9.76616526,0.156928571 Z" id="facebook" sketch:type="MSShapeGroup"/>
    </g>
</symbol><symbol id="icon-gamepad" viewBox="0 0 512 512"><path d="M510.295 329.981l-34.318-145.846c-9.243-39.288-45.458-79.686-100.608-79.686H136.631c-40.36 0-87.978 26.002-100.608 79.686L1.704 329.981c-9.316 39.588 20.732 77.569 61.455 77.569 17.306 0 33.583-9.218 42.476-24.051l26.438-44.056c4.519-7.536 12.786-12.217 21.575-12.217h204.7c8.79 0 17.057 4.682 21.579 12.223l26.431 44.045c8.898 14.839 25.175 24.057 42.5 24.057 40.663-.001 70.762-37.943 61.437-77.57zM191.74 230.836h-17.132v17.132c0 8.283-6.715 14.998-14.998 14.998s-14.998-6.715-14.998-14.998v-17.132H127.48c-8.283 0-14.998-6.715-14.998-14.998s6.715-14.998 14.998-14.998h17.132v-17.132c0-8.283 6.715-14.998 14.998-14.998s14.998 6.715 14.998 14.998v17.132h17.132c8.283 0 14.998 6.715 14.998 14.998s-6.715 14.998-14.998 14.998zm128.519 0c-8.278 0-14.998-6.719-14.998-14.998s6.721-14.998 14.998-14.998c8.278 0 14.998 6.719 14.998 14.998s-6.72 14.998-14.998 14.998zm32.13 32.13c-8.278 0-14.998-6.719-14.998-14.998s6.721-14.998 14.998-14.998 14.998 6.719 14.998 14.998-6.72 14.998-14.998 14.998zm0-64.26c-8.278 0-14.998-6.719-14.998-14.998s6.721-14.998 14.998-14.998 14.998 6.719 14.998 14.998-6.72 14.998-14.998 14.998zm32.13 32.13c-8.278 0-14.998-6.719-14.998-14.998s6.721-14.998 14.998-14.998c8.278 0 14.998 6.719 14.998 14.998s-6.72 14.998-14.998 14.998z" fill-rule="evenodd" clip-rule="evenodd"/></symbol></svg>